<?xml version="1.0" standalone="no"?>
<!DOCTYPE svg PUBLIC "-//W3C//DTD SVG 20010904//EN"
 "http://www.w3.org/TR/2001/REC-SVG-20010904/DTD/svg10.dtd">
<svg version="1.0" xmlns="http://www.w3.org/2000/svg"
 width="838.000000pt" height="882.000000pt" viewBox="0 0 838.000000 882.000000"
 preserveAspectRatio="xMidYMid meet">

<g transform="translate(0.000000,882.000000) scale(0.100000,-0.100000)"
fill="#000000" stroke="none">
<path d="M2195 8808 c-35 -19 -66 -52 -85 -88 -12 -25 -49 -271 -131 -878
l-114 -842 -30 6 c-81 17 -312 100 -412 149 -254 121 -359 209 -531 438 -158
210 -173 222 -287 222 -71 0 -88 -4 -150 -34 -88 -44 -213 -166 -280 -274
-177 -288 -222 -606 -117 -842 29 -66 444 -626 508 -686 82 -77 202 -129 338
-148 44 -6 235 -11 437 -11 335 0 359 -1 359 -17 0 -10 -23 -182 -50 -383 -27
-201 -50 -368 -50 -372 0 -5 8 -8 19 -8 10 0 24 -6 30 -14 10 -12 8 -17 -8
-25 -11 -6 -26 -11 -34 -11 -10 0 -17 -15 -21 -42 -24 -166 -479 -3524 -483
-3565 -7 -65 -3 -70 131 -222 159 -181 346 -371 370 -376 29 -7 975 -135 997
-135 12 0 16 5 13 15 -7 18 23 32 38 17 8 -8 8 -15 -2 -27 -7 -8 -8 -15 -2
-15 5 0 1022 -137 2258 -305 1237 -168 2265 -305 2286 -305 21 0 53 6 71 13
46 20 105 89 113 134 4 21 229 1667 499 3658 l492 3620 -20 36 c-10 20 -102
148 -204 285 -150 202 -192 253 -227 272 -38 20 -364 67 -2802 397 -1517 206
-2790 375 -2829 375 -38 -1 -79 -6 -90 -12z m2865 -483 c1521 -206 2775 -379
2787 -385 12 -5 25 -20 28 -33 7 -27 -970 -7250 -985 -7284 -5 -12 -21 -25
-35 -29 -14 -3 -1259 161 -2803 370 -2764 375 -2777 377 -2800 402 -16 19 -22
34 -18 53 3 14 136 991 296 2171 160 1180 293 2164 296 2188 l6 42 165 0 164
0 -6 -32 c-7 -42 -45 -320 -45 -330 0 -5 5 -8 12 -8 19 0 48 -32 48 -53 0 -28
-29 -57 -57 -57 -13 0 -23 -6 -23 -14 0 -8 -67 -511 -150 -1120 -82 -608 -150
-1112 -150 -1121 0 -9 9 -15 24 -15 37 0 56 -10 56 -30 0 -21 -19 -30 -61 -30
-22 0 -30 -5 -34 -23 -2 -12 -25 -175 -50 -362 -25 -187 -48 -357 -51 -377 -4
-29 -2 -38 9 -38 8 0 20 -7 27 -15 11 -13 8 -22 -22 -53 -35 -37 -35 -38 -57
-207 -29 -229 -28 -240 12 -279 35 -36 26 -34 267 -65 80 -11 1142 -155 2360
-320 1218 -166 2232 -301 2252 -301 56 0 94 38 108 106 10 49 10 57 -6 68 -18
13 -12 36 9 36 9 0 27 110 61 360 43 317 47 364 35 386 -12 23 -11 28 6 40 16
12 24 56 56 285 35 256 38 273 67 312 35 50 170 274 202 337 21 42 22 53 17
165 -7 140 -39 281 -87 374 -31 62 -31 63 -20 139 6 42 13 86 15 98 4 18 1 20
-20 16 -24 -4 -25 -7 -25 -85 l0 -82 -25 37 c-36 53 -33 128 5 128 10 0 20 9
23 21 3 11 15 23 26 26 12 3 23 15 26 27 3 11 50 356 105 766 55 410 103 761
106 781 4 31 2 37 -15 42 -30 7 -28 41 2 35 l23 -4 148 1091 c140 1034 147
1094 133 1128 -9 20 -28 42 -44 51 -28 14 -4786 666 -4862 666 -21 0 -42 -10
-67 -32 l-35 -33 -84 -625 c-47 -344 -87 -640 -90 -657 -5 -30 -9 -33 -40 -33
-35 0 -278 30 -283 35 -3 2 40 330 53 412 5 27 3 31 -14 26 -10 -2 -22 1 -26
7 -10 16 16 32 32 19 15 -13 8 -57 102 639 83 616 85 622 135 622 12 0 1265
-169 2786 -375z m135 85 c8 -13 -14 -42 -26 -34 -5 3 -9 14 -9 25 0 20 24 26
35 9z m-190 -541 c1304 -177 2371 -323 2373 -324 2 -2 -511 -3800 -523 -3873
l-6 -32 -38 30 c-21 17 -51 34 -67 39 -28 7 -29 9 -42 116 -27 216 -87 402
-183 572 -58 101 -105 152 -191 209 -174 115 -278 139 -590 139 -213 0 -216 0
-205 20 32 62 245 395 398 625 370 555 591 818 746 886 134 60 200 188 164
322 -16 56 -443 629 -492 659 -80 49 -118 53 -509 53 -305 0 -375 -3 -421 -16
-204 -60 -300 -214 -1051 -1699 -165 -324 -297 -581 -294 -570 29 114 37 152
51 230 23 125 31 362 16 466 -17 120 -46 219 -87 302 -52 102 -454 636 -539
716 -77 71 -185 129 -306 163 -67 19 -109 21 -421 25 -192 3 -348 8 -348 13 0
11 158 1179 165 1218 3 17 11 32 18 32 7 0 1079 -145 2382 -321z m-2205 -2052
c0 -13 -123 -375 -199 -586 -245 -678 -396 -1240 -441 -1636 -15 -128 -15
-362 0 -445 40 -227 83 -307 370 -690 286 -381 334 -426 505 -475 94 -28 255
-17 367 25 252 92 529 345 887 808 35 45 67 82 71 82 4 0 12 -30 19 -67 18
-100 75 -263 126 -362 163 -314 441 -499 838 -557 94 -14 130 -15 223 -5 60 6
135 11 166 11 182 0 563 136 733 262 33 25 93 75 133 112 41 37 75 66 77 64 1
-2 -10 -93 -26 -203 -32 -227 -33 -239 -19 -230 17 11 40 -15 40 -45 0 -35
-24 -57 -44 -41 -11 10 -15 8 -19 -6 -3 -10 -27 -179 -53 -375 -42 -318 -50
-358 -66 -358 -9 0 -217 27 -460 60 -291 40 -444 57 -446 50 -13 -38 -62 -51
-96 -25 -16 12 -17 17 -6 30 10 12 10 16 -1 19 -8 2 -835 115 -1839 251 -1004
135 -1842 249 -1862 252 -30 4 -38 10 -38 27 0 11 64 490 141 1064 135 994
141 1043 124 1056 -12 8 -16 19 -12 31 6 14 10 15 22 5 8 -7 15 -9 15 -4 0 4
52 391 116 859 67 496 113 864 109 883 -3 18 -2 32 4 32 5 0 13 21 16 48 13
90 -15 82 271 82 140 0 254 -2 254 -3z m3175 -1243 c15 -6 15 -8 -1 -25 -15
-17 -15 -18 9 -24 30 -8 47 0 47 21 0 20 26 17 90 -9 68 -28 169 -96 203 -136
14 -17 38 -57 53 -88 71 -150 23 -434 -88 -528 -79 -67 -245 -108 -418 -103
-104 3 -119 6 -161 30 -68 40 -68 57 -9 180 55 113 70 180 50 227 -15 36 -27
42 -75 31 -54 -12 -137 -71 -192 -138 -161 -192 -239 -513 -178 -725 59 -203
250 -322 485 -302 134 11 248 42 360 96 95 47 114 61 203 153 108 111 138 149
187 244 50 97 79 107 172 61 42 -21 68 -54 68 -84 0 -22 -103 -201 -188 -327
-47 -70 -190 -208 -343 -331 -88 -71 -358 -184 -509 -213 -41 -8 -152 -19
-247 -25 -190 -13 -277 -4 -433 46 -120 38 -143 50 -247 133 -119 95 -159 139
-208 226 -68 121 -87 194 -93 346 -4 124 -2 147 27 280 43 199 80 294 169 430
117 180 324 371 475 440 66 29 255 93 322 109 45 10 445 14 470 5z m1648 -70
c-3 -8 -11 -14 -18 -14 -18 0 -26 25 -12 39 14 14 38 -5 30 -25z m-48 -869 c0
-33 -3 -40 -20 -40 -15 0 -21 8 -23 28 -5 39 5 59 25 55 14 -2 18 -13 18 -43z
m-215 -185 c0 -26 -15 -33 -30 -15 -10 12 -10 18 0 30 15 18 30 11 30 -15z
m-3 -256 c8 -21 -13 -42 -28 -27 -13 13 -5 43 11 43 6 0 13 -7 17 -16z m317
-534 c15 -15 -13 -40 -46 -40 -30 0 -44 19 -34 46 5 13 14 15 38 10 18 -3 37
-11 42 -16z m-314 -386 c0 -8 -8 -14 -18 -14 -25 0 -34 11 -21 26 13 15 39 7
39 -12z m258 -2 c2 -14 -2 -22 -11 -22 -17 0 -26 19 -19 38 7 19 27 9 30 -16z
m-4588 -752 c0 -26 -15 -33 -30 -15 -10 12 -10 18 0 30 15 18 30 11 30 -15z
m-586 -469 c9 -15 -23 -36 -36 -23 -5 5 -7 15 -4 21 9 13 33 14 40 2z m1063
-217 c8 -21 -13 -42 -28 -27 -13 13 -5 43 11 43 6 0 13 -7 17 -16z m-427 -159
c10 -12 9 -16 -4 -21 -9 -3 -23 -3 -32 0 -13 5 -14 9 -4 21 7 8 16 15 20 15 4
0 13 -7 20 -15z m2438 -112 c5 -17 -26 -29 -40 -15 -6 6 -7 15 -3 22 9 14 37
9 43 -7z m-41 -29 c8 -21 -13 -42 -28 -27 -13 13 -5 43 11 43 6 0 13 -7 17
-16z"/>
<path d="M5763 4530 c14 -38 4 -47 -22 -21 -22 22 -65 28 -76 11 -3 -5 -15
-10 -26 -10 -10 0 -19 -4 -19 -10 0 -5 6 -10 12 -10 7 0 2 -7 -11 -16 -17 -12
-26 -13 -34 -5 -18 18 -44 12 -51 -11 -9 -35 -7 -68 4 -68 6 0 10 8 10 18 0
19 18 42 32 42 12 0 10 -28 -4 -50 -7 -10 -9 -23 -5 -27 11 -11 41 10 47 34 3
10 15 32 27 49 20 27 22 28 28 9 4 -11 12 -31 18 -45 18 -41 19 -46 5 -28 -13
15 -15 15 -27 -5 -11 -17 -11 -22 1 -31 11 -8 13 -18 7 -34 -11 -28 -49 -30
-49 -2 0 13 -5 18 -15 14 -8 -3 -14 -16 -13 -27 1 -12 -2 -32 -6 -43 -8 -26
32 -59 50 -40 15 16 16 31 1 32 -32 3 -28 7 13 14 25 4 50 3 56 -2 7 -5 16 -8
20 -7 5 1 12 0 17 -1 4 -1 12 -3 19 -4 19 -2 20 -24 1 -29 -17 -4 -17 -4 1
-12 11 -5 26 -3 37 4 16 9 19 8 19 -8 0 -20 17 -37 27 -27 3 3 0 13 -7 21 -11
13 -9 19 9 38 11 13 21 28 21 35 0 17 -34 32 -50 22 -10 -6 -17 -2 -25 13 -6
13 -19 21 -30 19 -13 -1 -24 7 -32 23 -6 14 -7 25 -2 25 5 0 6 12 3 27 -6 22
-4 25 10 20 10 -4 20 -7 22 -7 2 0 4 -11 4 -24 0 -17 9 -27 29 -36 16 -6 32
-18 35 -26 8 -21 37 -17 43 6 3 11 17 23 30 26 14 4 21 9 16 13 -4 3 -8 13 -8
21 0 18 -69 17 -91 -1 -10 -8 -14 -8 -14 -1 0 15 40 42 62 42 29 0 21 17 -32
70 -32 32 -59 50 -74 50 -23 0 -24 -2 -13 -30z m-28 -70 c3 -5 1 -10 -4 -10
-6 0 -11 5 -11 10 0 6 2 10 4 10 3 0 8 -4 11 -10z"/>
<path d="M5936 4488 c-13 -15 -15 -23 -6 -33 7 -8 17 -13 22 -12 16 3 27 -47
14 -65 -6 -8 -23 -18 -38 -22 -31 -7 -35 -18 -14 -35 17 -15 66 -4 66 14 0 8
9 16 20 20 16 5 18 9 8 31 -8 18 -9 27 -1 32 21 14 24 48 6 64 -30 25 -59 28
-77 6z"/>
<path d="M5406 4465 c-4 -12 0 -14 22 -9 50 12 60 23 21 24 -24 0 -39 -5 -43
-15z"/>
<path d="M5500 4450 c0 -5 5 -10 10 -10 6 0 10 5 10 10 0 6 -4 10 -10 10 -5 0
-10 -4 -10 -10z"/>
<path d="M6039 4444 c-8 -10 -9 -18 -2 -25 15 -15 53 -2 47 16 -8 21 -31 25
-45 9z"/>
<path d="M5295 4420 c-3 -5 -1 -10 4 -10 6 0 11 5 11 10 0 6 -2 10 -4 10 -3 0
-8 -4 -11 -10z"/>
<path d="M5413 4410 c-37 -22 -44 -45 -12 -37 12 3 22 0 25 -8 8 -19 44 -6 44
15 0 23 -10 50 -19 50 -3 0 -21 -9 -38 -20z"/>
<path d="M5491 4393 c-16 -30 -14 -53 4 -53 21 0 28 21 17 50 l-9 24 -12 -21z"/>
<path d="M5265 4391 c-3 -5 -1 -12 5 -16 5 -3 10 1 10 9 0 18 -6 21 -15 7z"/>
<path d="M5625 4379 c-6 -19 0 -38 9 -28 10 12 16 49 7 49 -5 0 -13 -9 -16
-21z"/>
<path d="M6027 4394 c-12 -12 22 -64 38 -58 20 8 19 34 -2 50 -20 15 -27 17
-36 8z"/>
<path d="M5800 4340 c0 -5 7 -10 16 -10 8 0 12 5 9 10 -3 6 -10 10 -16 10 -5
0 -9 -4 -9 -10z"/>
<path d="M5425 4328 c-29 -16 -29 -16 -15 -33 17 -21 25 -19 38 10 18 40 14
44 -23 23z"/>
<path d="M5515 4330 c-3 -5 1 -10 10 -10 9 0 13 5 10 10 -3 6 -8 10 -10 10 -2
0 -7 -4 -10 -10z"/>
<path d="M5984 4295 c-6 -34 4 -63 13 -37 3 6 13 12 24 12 22 0 26 29 7 48
-21 21 -37 13 -44 -23z"/>
<path d="M6080 4302 c0 -37 8 -44 31 -29 23 14 25 43 3 51 -28 11 -34 7 -34
-22z"/>
<path d="M5480 4298 c0 -7 5 -20 10 -28 8 -12 10 -11 10 7 0 12 -4 25 -10 28
-5 3 -10 0 -10 -7z"/>
<path d="M5551 4299 c-16 -6 -21 -13 -14 -20 13 -13 43 -1 43 17 0 8 -1 14 -2
13 -2 0 -14 -5 -27 -10z"/>
<path d="M5910 4290 c0 -6 6 -19 13 -31 10 -17 9 -22 -6 -34 -15 -11 -17 -17
-7 -35 17 -31 31 -20 45 34 10 39 10 50 -2 62 -17 16 -43 19 -43 4z"/>
<path d="M6204 4269 c-19 -21 -19 -21 6 -18 14 2 26 12 28 22 5 23 -11 22 -34
-4z"/>
<path d="M5238 4273 c-51 -6 -49 -23 2 -23 29 0 40 4 40 15 0 8 -1 14 -2 13
-2 -1 -20 -3 -40 -5z"/>
<path d="M6054 4264 c4 -15 2 -24 -9 -28 -8 -3 -15 -12 -15 -21 0 -18 39 -21
41 -2 3 26 -3 52 -13 62 -7 7 -8 3 -4 -11z"/>
<path d="M5895 4249 c-10 -15 3 -25 16 -12 7 7 7 13 1 17 -6 3 -14 1 -17 -5z"/>
<path d="M5320 4235 c0 -19 11 -19 36 0 18 14 18 14 -8 15 -18 0 -28 -5 -28
-15z"/>
<path d="M5470 4235 c0 -19 24 -29 48 -20 16 6 16 7 -2 21 -26 18 -46 18 -46
-1z"/>
<path d="M5973 4233 c-7 -3 -13 -11 -13 -19 0 -18 34 -18 49 0 9 11 8 15 -6
18 -10 3 -24 3 -30 1z"/>
<path d="M5542 4214 c1 -9 9 -19 16 -22 9 -3 13 2 10 14 -1 9 -9 19 -16 22 -9
3 -13 -2 -10 -14z"/>
<path d="M6256 4209 c-10 -29 -1 -70 14 -67 10 2 14 13 12 33 -4 35 -19 55
-26 34z"/>
<path d="M6100 4188 c0 -16 4 -28 9 -28 18 0 20 17 6 36 -14 18 -14 18 -15 -8z"/>
<path d="M6210 4190 c0 -5 5 -10 10 -10 6 0 10 5 10 10 0 6 -4 10 -10 10 -5 0
-10 -4 -10 -10z"/>
<path d="M5755 4180 c3 -5 8 -10 11 -10 2 0 4 5 4 10 0 6 -5 10 -11 10 -5 0
-7 -4 -4 -10z"/>
<path d="M6055 4170 c3 -5 11 -10 16 -10 6 0 7 5 4 10 -3 6 -11 10 -16 10 -6
0 -7 -4 -4 -10z"/>
<path d="M5148 4141 c-18 -16 -30 -32 -26 -36 3 -4 15 2 25 12 11 11 24 18 31
15 6 -2 19 1 28 6 16 9 15 11 -4 21 -18 10 -26 7 -54 -18z"/>
<path d="M5418 4158 c9 -9 15 -9 24 0 9 9 7 12 -12 12 -19 0 -21 -3 -12 -12z"/>
<path d="M5986 4161 c-4 -6 -1 -11 6 -11 11 0 11 -2 0 -8 -8 -6 -2 -9 18 -9
18 0 30 6 30 13 0 8 -6 11 -16 7 -9 -3 -20 0 -24 7 -5 8 -9 9 -14 1z"/>
<path d="M5275 4150 c3 -5 8 -10 11 -10 2 0 4 5 4 10 0 6 -5 10 -11 10 -5 0
-7 -4 -4 -10z"/>
<path d="M5850 4150 c0 -5 5 -10 11 -10 5 0 7 5 4 10 -3 6 -8 10 -11 10 -2 0
-4 -4 -4 -10z"/>
<path d="M6086 4135 c-4 -12 3 -15 35 -15 33 0 40 -3 35 -15 -8 -21 6 -19 26
5 22 24 9 33 -37 24 -23 -4 -35 -2 -35 5 0 16 -17 13 -24 -4z"/>
<path d="M5260 4114 c0 -8 5 -12 10 -9 6 3 10 10 10 16 0 5 -4 9 -10 9 -5 0
-10 -7 -10 -16z"/>
<path d="M6005 4103 c3 -8 5 -16 5 -19 0 -2 11 1 25 8 19 8 28 8 40 -2 8 -7
15 -8 15 -2 0 18 -25 31 -58 30 -24 -1 -32 -5 -27 -15z"/>
<path d="M6110 4091 c0 -5 5 -13 10 -16 6 -3 10 -2 10 4 0 5 -4 13 -10 16 -5
3 -10 2 -10 -4z"/>
<path d="M6235 4090 c-3 -5 -1 -10 4 -10 6 0 11 5 11 10 0 6 -2 10 -4 10 -3 0
-8 -4 -11 -10z"/>
<path d="M4946 4044 c-22 -21 -20 -27 4 -12 11 7 20 16 20 20 0 12 -7 10 -24
-8z"/>
<path d="M5270 4049 c0 -5 5 -7 10 -4 6 3 10 8 10 11 0 2 -4 4 -10 4 -5 0 -10
-5 -10 -11z"/>
<path d="M6165 4050 c-3 -5 -1 -10 4 -10 6 0 11 5 11 10 0 6 -2 10 -4 10 -3 0
-8 -4 -11 -10z"/>
<path d="M6030 4035 c0 -8 5 -15 10 -15 6 0 10 7 10 15 0 8 -4 15 -10 15 -5 0
-10 -7 -10 -15z"/>
<path d="M6095 4040 c-8 -13 4 -32 16 -25 12 8 12 35 0 35 -6 0 -13 -4 -16
-10z"/>
<path d="M6166 4001 c-4 -7 -5 -15 -2 -18 9 -9 19 4 14 18 -4 11 -6 11 -12 0z"/>
<path d="M4915 3890 c-3 -5 -1 -10 4 -10 6 0 11 5 11 10 0 6 -2 10 -4 10 -3 0
-8 -4 -11 -10z"/>
<path d="M4995 3399 c-10 -15 3 -25 16 -12 7 7 7 13 1 17 -6 3 -14 1 -17 -5z"/>
<path d="M4905 3370 c-8 -13 15 -24 27 -12 6 6 4 11 -6 15 -8 3 -18 2 -21 -3z"/>
<path d="M4605 3289 c-4 -6 -3 -15 3 -21 6 -6 11 -4 15 6 7 18 -9 31 -18 15z"/>
<path d="M5076 2982 c-3 -6 -1 -14 5 -17 15 -10 25 3 12 16 -7 7 -13 7 -17 1z"/>
</g>
</svg>
