<svg width="145" height="263" viewBox="0 0 145 263" fill="none" xmlns="http://www.w3.org/2000/svg">
<rect x="108" width="37" height="263" fill="#EBEBEB"/>
<rect x="29" y="15" width="21" height="234" fill="#EBEBEB"/>
<rect x="0.5" y="0.5" width="115" height="262" stroke="#EBEBEB"/>
<rect x="103" y="7" width="250" height="1.99999" transform="rotate(90 103 7)" fill="#EBEBEB"/>
<rect x="99" y="7" width="250" height="1.99999" transform="rotate(90 99 7)" fill="#EBEBEB"/>
<rect x="95" y="7" width="250" height="1.99999" transform="rotate(90 95 7)" fill="#EBEBEB"/>
<rect x="91" y="7" width="250" height="1.99999" transform="rotate(90 91 7)" fill="#EBEBEB"/>
<rect x="87" y="7" width="250" height="1.99999" transform="rotate(90 87 7)" fill="#EBEBEB"/>
<rect x="83" y="7" width="250" height="1.99999" transform="rotate(90 83 7)" fill="#EBEBEB"/>
<rect x="79" y="7" width="250" height="1.99999" transform="rotate(90 79 7)" fill="#EBEBEB"/>
<rect x="75" y="7" width="250" height="1.99999" transform="rotate(90 75 7)" fill="#EBEBEB"/>
<rect x="71" y="7" width="250" height="1.99999" transform="rotate(90 71 7)" fill="#EBEBEB"/>
<rect x="67" y="7" width="250" height="1.99999" transform="rotate(90 67 7)" fill="#EBEBEB"/>
<rect x="63" y="7" width="250" height="1.99999" transform="rotate(90 63 7)" fill="#EBEBEB"/>
<rect x="59" y="7" width="165" height="1.99999" transform="rotate(90 59 7)" fill="#EBEBEB"/>
<rect x="19" y="18" width="139" height="1.99999" transform="rotate(90 19 18)" fill="#EBEBEB"/>
<rect x="15" y="18" width="139" height="1.99999" transform="rotate(90 15 18)" fill="#EBEBEB"/>
<rect x="11" y="18" width="105" height="2" transform="rotate(90 11 18)" fill="#EBEBEB"/>
<path d="M128.333 10.8138L128.132 6.97193L126.037 10.1984L122.971 14.9183L117.535 13.4617L113.819 12.466L116.24 15.4558L119.782 19.8295L116.717 24.5494L114.622 27.7758L118.213 26.3972L123.467 24.3803L127.009 28.754L129.43 31.7438L129.229 27.9019L128.934 22.2818L134.188 20.2649L137.78 18.8862L134.064 17.8905L128.628 16.4339L128.333 10.8138Z" fill="#EBEBEB" stroke="white" stroke-width="2.5"/>
<rect x="130" y="86" width="3" height="91" rx="1.5" fill="white"/>
<rect x="130" y="86" width="3" height="91" rx="1.5" fill="white"/>
<rect x="124" y="102" width="3" height="60" rx="1.5" fill="white"/>
<rect x="124" y="102" width="3" height="60" rx="1.5" fill="white"/>
<circle cx="15" cy="246" r="8" fill="#EBEBEB"/>
<path d="M11.9171 248.779C11.8803 248.926 11.7882 249 11.6409 249L11 249L11 244.575L11.6409 244.575C11.7882 244.575 11.8803 244.649 11.9171 244.796C11.9392 244.929 11.9797 245.394 12.0387 246.19L16.6796 246.19C16.7974 246.19 16.989 246.198 17.2541 246.212L16.2928 245.062C16.2486 245.018 16.2192 244.97 16.2044 244.918C16.1897 244.859 16.1823 244.808 16.1823 244.763C16.1823 244.682 16.1971 244.616 16.2265 244.564C16.256 244.513 16.2928 244.468 16.337 244.431L16.9227 244L19 246.434L19 247.562L12.0276 247.562C11.9761 248.233 11.9392 248.639 11.9171 248.779Z" fill="white"/>
<mask id="path-24-outside-1_0_1" maskUnits="userSpaceOnUse" x="42" y="123" width="60" height="19" fill="black">
<rect fill="white" x="42" y="123" width="60" height="19"/>
<path d="M49.4759 136.091C48.6352 136.091 47.8595 135.896 47.1489 135.506C46.4469 135.107 45.8879 134.557 45.4719 133.855C45.0645 133.144 44.8609 132.347 44.8609 131.463C44.8609 130.579 45.0645 129.786 45.4719 129.084C45.8879 128.382 46.4469 127.836 47.1489 127.446C47.8595 127.047 48.6352 126.848 49.4759 126.848C50.3252 126.848 51.1009 127.047 51.8029 127.446C52.5136 127.836 53.0726 128.382 53.4799 129.084C53.8872 129.786 54.0909 130.579 54.0909 131.463C54.0909 132.347 53.8872 133.144 53.4799 133.855C53.0726 134.557 52.5136 135.107 51.8029 135.506C51.1009 135.896 50.3252 136.091 49.4759 136.091ZM49.4759 134.804C50.0739 134.804 50.6069 134.67 51.0749 134.401C51.5429 134.124 51.9069 133.734 52.1669 133.231C52.4356 132.72 52.5699 132.13 52.5699 131.463C52.5699 130.796 52.4356 130.211 52.1669 129.708C51.9069 129.205 51.5429 128.82 51.0749 128.551C50.6069 128.282 50.0739 128.148 49.4759 128.148C48.8779 128.148 48.3449 128.282 47.8769 128.551C47.4089 128.82 47.0405 129.205 46.7719 129.708C46.5119 130.211 46.3819 130.796 46.3819 131.463C46.3819 132.13 46.5119 132.72 46.7719 133.231C47.0405 133.734 47.4089 134.124 47.8769 134.401C48.3449 134.67 48.8779 134.804 49.4759 134.804ZM57.0312 129.89C57.2826 129.561 57.6249 129.283 58.0582 129.058C58.4916 128.833 58.9812 128.72 59.5272 128.72C60.1512 128.72 60.7189 128.876 61.2302 129.188C61.7502 129.491 62.1576 129.92 62.4522 130.475C62.7469 131.03 62.8942 131.667 62.8942 132.386C62.8942 133.105 62.7469 133.751 62.4522 134.323C62.1576 134.886 61.7502 135.328 61.2302 135.649C60.7189 135.961 60.1512 136.117 59.5272 136.117C58.9812 136.117 58.4959 136.009 58.0712 135.792C57.6466 135.567 57.2999 135.289 57.0312 134.96V139.406H55.5492V128.837H57.0312V129.89ZM61.3862 132.386C61.3862 131.892 61.2822 131.467 61.0742 131.112C60.8749 130.748 60.6062 130.475 60.2682 130.293C59.9389 130.102 59.5836 130.007 59.2022 130.007C58.8296 130.007 58.4742 130.102 58.1362 130.293C57.8069 130.484 57.5382 130.761 57.3302 131.125C57.1309 131.489 57.0312 131.918 57.0312 132.412C57.0312 132.906 57.1309 133.339 57.3302 133.712C57.5382 134.076 57.8069 134.353 58.1362 134.544C58.4742 134.735 58.8296 134.83 59.2022 134.83C59.5836 134.83 59.9389 134.735 60.2682 134.544C60.6062 134.345 60.8749 134.059 61.0742 133.686C61.2822 133.313 61.3862 132.88 61.3862 132.386ZM66.0888 130.046V134.011C66.0888 134.28 66.1494 134.475 66.2708 134.596C66.4008 134.709 66.6174 134.765 66.9208 134.765H67.8308V136H66.6608C65.9934 136 65.4821 135.844 65.1268 135.532C64.7714 135.22 64.5938 134.713 64.5938 134.011V130.046H63.7488V128.837H64.5938V127.056H66.0888V128.837H67.8308V130.046H66.0888ZM69.9507 127.888C69.682 127.888 69.4567 127.797 69.2747 127.615C69.0927 127.433 69.0017 127.208 69.0017 126.939C69.0017 126.67 69.0927 126.445 69.2747 126.263C69.4567 126.081 69.682 125.99 69.9507 125.99C70.2107 125.99 70.4317 126.081 70.6137 126.263C70.7957 126.445 70.8867 126.67 70.8867 126.939C70.8867 127.208 70.7957 127.433 70.6137 127.615C70.4317 127.797 70.2107 127.888 69.9507 127.888ZM70.6787 128.837V136H69.1967V128.837H70.6787ZM75.7314 136.117C75.0554 136.117 74.4444 135.965 73.8984 135.662C73.3524 135.35 72.9234 134.917 72.6114 134.362C72.2994 133.799 72.1434 133.149 72.1434 132.412C72.1434 131.684 72.3037 131.038 72.6244 130.475C72.9451 129.912 73.3827 129.478 73.9374 129.175C74.4921 128.872 75.1117 128.72 75.7964 128.72C76.4811 128.72 77.1007 128.872 77.6554 129.175C78.2101 129.478 78.6477 129.912 78.9684 130.475C79.2891 131.038 79.4494 131.684 79.4494 132.412C79.4494 133.14 79.2847 133.786 78.9554 134.349C78.6261 134.912 78.1754 135.35 77.6034 135.662C77.0401 135.965 76.4161 136.117 75.7314 136.117ZM75.7314 134.83C76.1127 134.83 76.4681 134.739 76.7974 134.557C77.1354 134.375 77.4084 134.102 77.6164 133.738C77.8244 133.374 77.9284 132.932 77.9284 132.412C77.9284 131.892 77.8287 131.454 77.6294 131.099C77.4301 130.735 77.1657 130.462 76.8364 130.28C76.5071 130.098 76.1517 130.007 75.7704 130.007C75.3891 130.007 75.0337 130.098 74.7044 130.28C74.3837 130.462 74.1281 130.735 73.9374 131.099C73.7467 131.454 73.6514 131.892 73.6514 132.412C73.6514 133.183 73.8464 133.781 74.2364 134.206C74.6351 134.622 75.1334 134.83 75.7314 134.83ZM84.5285 128.72C85.0918 128.72 85.5945 128.837 86.0365 129.071C86.4871 129.305 86.8381 129.652 87.0895 130.111C87.3408 130.57 87.4665 131.125 87.4665 131.775V136H85.9975V131.996C85.9975 131.355 85.8371 130.865 85.5165 130.527C85.1958 130.18 84.7581 130.007 84.2035 130.007C83.6488 130.007 83.2068 130.18 82.8775 130.527C82.5568 130.865 82.3965 131.355 82.3965 131.996V136H80.9145V128.837H82.3965V129.656C82.6391 129.361 82.9468 129.132 83.3195 128.967C83.7008 128.802 84.1038 128.72 84.5285 128.72ZM88.8628 132.386C88.8628 131.667 89.0102 131.03 89.3048 130.475C89.6082 129.92 90.0155 129.491 90.5268 129.188C91.0468 128.876 91.6188 128.72 92.2428 128.72C92.8062 128.72 93.2958 128.833 93.7118 129.058C94.1365 129.275 94.4745 129.548 94.7258 129.877V128.837H96.2208V136H94.7258V134.934C94.4745 135.272 94.1322 135.554 93.6988 135.779C93.2655 136.004 92.7715 136.117 92.2168 136.117C91.6015 136.117 91.0382 135.961 90.5268 135.649C90.0155 135.328 89.6082 134.886 89.3048 134.323C89.0102 133.751 88.8628 133.105 88.8628 132.386ZM94.7258 132.412C94.7258 131.918 94.6218 131.489 94.4138 131.125C94.2145 130.761 93.9502 130.484 93.6208 130.293C93.2915 130.102 92.9362 130.007 92.5548 130.007C92.1735 130.007 91.8182 130.102 91.4888 130.293C91.1595 130.475 90.8908 130.748 90.6828 131.112C90.4835 131.467 90.3838 131.892 90.3838 132.386C90.3838 132.88 90.4835 133.313 90.6828 133.686C90.8908 134.059 91.1595 134.345 91.4888 134.544C91.8268 134.735 92.1822 134.83 92.5548 134.83C92.9362 134.83 93.2915 134.735 93.6208 134.544C93.9502 134.353 94.2145 134.076 94.4138 133.712C94.6218 133.339 94.7258 132.906 94.7258 132.412ZM99.6494 126.38V136H98.1674V126.38H99.6494Z"/>
</mask>
<path d="M49.4759 136.091C48.6352 136.091 47.8595 135.896 47.1489 135.506C46.4469 135.107 45.8879 134.557 45.4719 133.855C45.0645 133.144 44.8609 132.347 44.8609 131.463C44.8609 130.579 45.0645 129.786 45.4719 129.084C45.8879 128.382 46.4469 127.836 47.1489 127.446C47.8595 127.047 48.6352 126.848 49.4759 126.848C50.3252 126.848 51.1009 127.047 51.8029 127.446C52.5136 127.836 53.0726 128.382 53.4799 129.084C53.8872 129.786 54.0909 130.579 54.0909 131.463C54.0909 132.347 53.8872 133.144 53.4799 133.855C53.0726 134.557 52.5136 135.107 51.8029 135.506C51.1009 135.896 50.3252 136.091 49.4759 136.091ZM49.4759 134.804C50.0739 134.804 50.6069 134.67 51.0749 134.401C51.5429 134.124 51.9069 133.734 52.1669 133.231C52.4356 132.72 52.5699 132.13 52.5699 131.463C52.5699 130.796 52.4356 130.211 52.1669 129.708C51.9069 129.205 51.5429 128.82 51.0749 128.551C50.6069 128.282 50.0739 128.148 49.4759 128.148C48.8779 128.148 48.3449 128.282 47.8769 128.551C47.4089 128.82 47.0405 129.205 46.7719 129.708C46.5119 130.211 46.3819 130.796 46.3819 131.463C46.3819 132.13 46.5119 132.72 46.7719 133.231C47.0405 133.734 47.4089 134.124 47.8769 134.401C48.3449 134.67 48.8779 134.804 49.4759 134.804ZM57.0312 129.89C57.2826 129.561 57.6249 129.283 58.0582 129.058C58.4916 128.833 58.9812 128.72 59.5272 128.72C60.1512 128.72 60.7189 128.876 61.2302 129.188C61.7502 129.491 62.1576 129.92 62.4522 130.475C62.7469 131.03 62.8942 131.667 62.8942 132.386C62.8942 133.105 62.7469 133.751 62.4522 134.323C62.1576 134.886 61.7502 135.328 61.2302 135.649C60.7189 135.961 60.1512 136.117 59.5272 136.117C58.9812 136.117 58.4959 136.009 58.0712 135.792C57.6466 135.567 57.2999 135.289 57.0312 134.96V139.406H55.5492V128.837H57.0312V129.89ZM61.3862 132.386C61.3862 131.892 61.2822 131.467 61.0742 131.112C60.8749 130.748 60.6062 130.475 60.2682 130.293C59.9389 130.102 59.5836 130.007 59.2022 130.007C58.8296 130.007 58.4742 130.102 58.1362 130.293C57.8069 130.484 57.5382 130.761 57.3302 131.125C57.1309 131.489 57.0312 131.918 57.0312 132.412C57.0312 132.906 57.1309 133.339 57.3302 133.712C57.5382 134.076 57.8069 134.353 58.1362 134.544C58.4742 134.735 58.8296 134.83 59.2022 134.83C59.5836 134.83 59.9389 134.735 60.2682 134.544C60.6062 134.345 60.8749 134.059 61.0742 133.686C61.2822 133.313 61.3862 132.88 61.3862 132.386ZM66.0888 130.046V134.011C66.0888 134.28 66.1494 134.475 66.2708 134.596C66.4008 134.709 66.6174 134.765 66.9208 134.765H67.8308V136H66.6608C65.9934 136 65.4821 135.844 65.1268 135.532C64.7714 135.22 64.5938 134.713 64.5938 134.011V130.046H63.7488V128.837H64.5938V127.056H66.0888V128.837H67.8308V130.046H66.0888ZM69.9507 127.888C69.682 127.888 69.4567 127.797 69.2747 127.615C69.0927 127.433 69.0017 127.208 69.0017 126.939C69.0017 126.67 69.0927 126.445 69.2747 126.263C69.4567 126.081 69.682 125.99 69.9507 125.99C70.2107 125.99 70.4317 126.081 70.6137 126.263C70.7957 126.445 70.8867 126.67 70.8867 126.939C70.8867 127.208 70.7957 127.433 70.6137 127.615C70.4317 127.797 70.2107 127.888 69.9507 127.888ZM70.6787 128.837V136H69.1967V128.837H70.6787ZM75.7314 136.117C75.0554 136.117 74.4444 135.965 73.8984 135.662C73.3524 135.35 72.9234 134.917 72.6114 134.362C72.2994 133.799 72.1434 133.149 72.1434 132.412C72.1434 131.684 72.3037 131.038 72.6244 130.475C72.9451 129.912 73.3827 129.478 73.9374 129.175C74.4921 128.872 75.1117 128.72 75.7964 128.72C76.4811 128.72 77.1007 128.872 77.6554 129.175C78.2101 129.478 78.6477 129.912 78.9684 130.475C79.2891 131.038 79.4494 131.684 79.4494 132.412C79.4494 133.14 79.2847 133.786 78.9554 134.349C78.6261 134.912 78.1754 135.35 77.6034 135.662C77.0401 135.965 76.4161 136.117 75.7314 136.117ZM75.7314 134.83C76.1127 134.83 76.4681 134.739 76.7974 134.557C77.1354 134.375 77.4084 134.102 77.6164 133.738C77.8244 133.374 77.9284 132.932 77.9284 132.412C77.9284 131.892 77.8287 131.454 77.6294 131.099C77.4301 130.735 77.1657 130.462 76.8364 130.28C76.5071 130.098 76.1517 130.007 75.7704 130.007C75.3891 130.007 75.0337 130.098 74.7044 130.28C74.3837 130.462 74.1281 130.735 73.9374 131.099C73.7467 131.454 73.6514 131.892 73.6514 132.412C73.6514 133.183 73.8464 133.781 74.2364 134.206C74.6351 134.622 75.1334 134.83 75.7314 134.83ZM84.5285 128.72C85.0918 128.72 85.5945 128.837 86.0365 129.071C86.4871 129.305 86.8381 129.652 87.0895 130.111C87.3408 130.57 87.4665 131.125 87.4665 131.775V136H85.9975V131.996C85.9975 131.355 85.8371 130.865 85.5165 130.527C85.1958 130.18 84.7581 130.007 84.2035 130.007C83.6488 130.007 83.2068 130.18 82.8775 130.527C82.5568 130.865 82.3965 131.355 82.3965 131.996V136H80.9145V128.837H82.3965V129.656C82.6391 129.361 82.9468 129.132 83.3195 128.967C83.7008 128.802 84.1038 128.72 84.5285 128.72ZM88.8628 132.386C88.8628 131.667 89.0102 131.03 89.3048 130.475C89.6082 129.92 90.0155 129.491 90.5268 129.188C91.0468 128.876 91.6188 128.72 92.2428 128.72C92.8062 128.72 93.2958 128.833 93.7118 129.058C94.1365 129.275 94.4745 129.548 94.7258 129.877V128.837H96.2208V136H94.7258V134.934C94.4745 135.272 94.1322 135.554 93.6988 135.779C93.2655 136.004 92.7715 136.117 92.2168 136.117C91.6015 136.117 91.0382 135.961 90.5268 135.649C90.0155 135.328 89.6082 134.886 89.3048 134.323C89.0102 133.751 88.8628 133.105 88.8628 132.386ZM94.7258 132.412C94.7258 131.918 94.6218 131.489 94.4138 131.125C94.2145 130.761 93.9502 130.484 93.6208 130.293C93.2915 130.102 92.9362 130.007 92.5548 130.007C92.1735 130.007 91.8182 130.102 91.4888 130.293C91.1595 130.475 90.8908 130.748 90.6828 131.112C90.4835 131.467 90.3838 131.892 90.3838 132.386C90.3838 132.88 90.4835 133.313 90.6828 133.686C90.8908 134.059 91.1595 134.345 91.4888 134.544C91.8268 134.735 92.1822 134.83 92.5548 134.83C92.9362 134.83 93.2915 134.735 93.6208 134.544C93.9502 134.353 94.2145 134.076 94.4138 133.712C94.6218 133.339 94.7258 132.906 94.7258 132.412ZM99.6494 126.38V136H98.1674V126.38H99.6494Z" fill="#9E9E9E"/>
<path d="M47.1489 135.506L46.1612 137.245L46.1739 137.252L46.1867 137.259L47.1489 135.506ZM45.4719 133.855L43.7367 134.85L43.7439 134.862L43.7513 134.875L45.4719 133.855ZM45.4719 129.084L43.7513 128.064L43.7466 128.072L43.742 128.08L45.4719 129.084ZM47.1489 127.446L48.1202 129.194L48.1274 129.19L47.1489 127.446ZM51.8029 127.446L50.8152 129.185L50.8279 129.192L50.8407 129.199L51.8029 127.446ZM53.4799 129.084L51.75 130.088L51.75 130.088L53.4799 129.084ZM53.4799 133.855L55.2098 134.859L55.2151 134.85L53.4799 133.855ZM51.8029 135.506L52.7742 137.254L52.7814 137.25L51.8029 135.506ZM51.0749 134.401L52.0706 136.136L52.0826 136.129L52.0945 136.122L51.0749 134.401ZM52.1669 133.231L50.3964 132.301L50.3904 132.312L52.1669 133.231ZM52.1669 129.708L50.3904 130.627L50.3967 130.639L50.403 130.651L52.1669 129.708ZM51.0749 128.551L50.0791 130.286H50.0791L51.0749 128.551ZM47.8769 128.551L48.8726 130.286L48.8726 130.286L47.8769 128.551ZM46.7719 129.708L45.008 128.765L45.0017 128.777L44.9954 128.789L46.7719 129.708ZM46.7719 133.231L44.9891 134.137L44.9984 134.156L45.008 134.174L46.7719 133.231ZM47.8769 134.401L46.8573 136.122L46.8692 136.129L46.8811 136.136L47.8769 134.401ZM49.4759 134.091C48.9586 134.091 48.5157 133.975 48.1111 133.753L46.1867 137.259C47.2034 137.817 48.3118 138.091 49.4759 138.091V134.091ZM48.1365 133.767C47.7407 133.542 47.433 133.241 47.1925 132.835L43.7513 134.875C44.3428 135.873 45.153 136.673 46.1612 137.245L48.1365 133.767ZM47.2071 132.86C46.9869 132.476 46.8609 132.027 46.8609 131.463H42.8609C42.8609 132.667 43.1422 133.812 43.7367 134.85L47.2071 132.86ZM46.8609 131.463C46.8609 130.899 46.9869 130.458 47.2018 130.088L43.742 128.08C43.1422 129.114 42.8609 130.259 42.8609 131.463H46.8609ZM47.1925 130.104C47.4308 129.701 47.7333 129.409 48.1202 129.194L46.1776 125.698C45.1604 126.263 44.345 127.063 43.7513 128.064L47.1925 130.104ZM48.1274 129.19C48.5295 128.965 48.9666 128.848 49.4759 128.848V124.848C48.3038 124.848 47.1896 125.13 46.1704 125.702L48.1274 129.19ZM49.4759 128.848C49.9977 128.848 50.4302 128.966 50.8152 129.185L52.7905 125.707C51.7716 125.128 50.6527 124.848 49.4759 124.848V128.848ZM50.8407 129.199C51.2316 129.414 51.5253 129.7 51.75 130.088L55.2098 128.08C54.6198 127.064 53.7955 126.258 52.7651 125.693L50.8407 129.199ZM51.75 130.088C51.9648 130.458 52.0909 130.899 52.0909 131.463H56.0909C56.0909 130.259 55.8096 129.114 55.2098 128.08L51.75 130.088ZM52.0909 131.463C52.0909 132.027 51.9649 132.476 51.7447 132.86L55.2151 134.85C55.8096 133.812 56.0909 132.667 56.0909 131.463H52.0909ZM51.75 132.851C51.5231 133.242 51.2241 133.537 50.8244 133.762L52.7814 137.25C53.803 136.677 54.622 135.872 55.2098 134.859L51.75 132.851ZM50.8316 133.758C50.4439 133.973 50.0056 134.091 49.4759 134.091V138.091C50.6448 138.091 51.7578 137.819 52.7742 137.254L50.8316 133.758ZM49.4759 136.804C50.3846 136.804 51.2677 136.596 52.0706 136.136L50.0791 132.666C49.9461 132.743 49.7632 132.804 49.4759 132.804V136.804ZM52.0945 136.122C52.8983 135.645 53.5184 134.971 53.9433 134.15L50.3904 132.312C50.2953 132.496 50.1875 132.602 50.0553 132.68L52.0945 136.122ZM53.9374 134.161C54.3787 133.321 54.5699 132.404 54.5699 131.463H50.5699C50.5699 131.857 50.4924 132.118 50.3964 132.301L53.9374 134.161ZM54.5699 131.463C54.5699 130.523 54.379 129.604 53.9307 128.765L50.403 130.651C50.4921 130.817 50.5699 131.068 50.5699 131.463H54.5699ZM53.9433 128.789C53.5159 127.963 52.8885 127.286 52.0706 126.816L50.0791 130.286C50.1973 130.353 50.2979 130.448 50.3904 130.627L53.9433 128.789ZM52.0706 126.816C51.2677 126.356 50.3846 126.148 49.4759 126.148V130.148C49.7632 130.148 49.9461 130.209 50.0791 130.286L52.0706 126.816ZM49.4759 126.148C48.5672 126.148 47.6841 126.356 46.8811 126.816L48.8726 130.286C49.0057 130.209 49.1886 130.148 49.4759 130.148V126.148ZM46.8811 126.816C46.0693 127.283 45.443 127.951 45.008 128.765L48.5357 130.651C48.6381 130.459 48.7484 130.357 48.8726 130.286L46.8811 126.816ZM44.9954 128.789C44.5644 129.623 44.3819 130.533 44.3819 131.463H48.3819C48.3819 131.058 48.4594 130.799 48.5483 130.627L44.9954 128.789ZM44.3819 131.463C44.3819 132.394 44.5647 133.303 44.9891 134.137L48.5547 132.325C48.4591 132.137 48.3819 131.867 48.3819 131.463H44.3819ZM45.008 134.174C45.4404 134.983 46.0594 135.649 46.8573 136.122L48.8965 132.68C48.7583 132.599 48.6407 132.485 48.5357 132.288L45.008 134.174ZM46.8811 136.136C47.6841 136.596 48.5672 136.804 49.4759 136.804V132.804C49.1886 132.804 49.0057 132.743 48.8726 132.666L46.8811 136.136ZM57.0312 129.89H55.0312V135.807L58.6211 131.103L57.0312 129.89ZM58.0582 129.058L57.1355 127.284L57.1355 127.284L58.0582 129.058ZM61.2302 129.188L60.1885 130.895L60.2054 130.906L60.2225 130.916L61.2302 129.188ZM62.4522 130.475L60.686 131.413V131.413L62.4522 130.475ZM62.4522 134.323L64.2244 135.25L64.2302 135.239L62.4522 134.323ZM61.2302 135.649L62.272 137.356L62.28 137.351L61.2302 135.649ZM58.0712 135.792L57.1338 137.559L57.148 137.566L57.1623 137.574L58.0712 135.792ZM57.0312 134.96L58.5809 133.696L55.0312 129.344V134.96H57.0312ZM57.0312 139.406V141.406H59.0312V139.406H57.0312ZM55.5492 139.406H53.5492V141.406H55.5492V139.406ZM55.5492 128.837V126.837H53.5492V128.837H55.5492ZM57.0312 128.837H59.0312V126.837H57.0312V128.837ZM61.0742 131.112L59.32 132.073L59.3338 132.098L59.3482 132.122L61.0742 131.112ZM60.2682 130.293L59.2661 132.024L59.2929 132.039L59.32 132.054L60.2682 130.293ZM58.1362 130.293L57.1536 128.551L57.1438 128.557L57.1341 128.562L58.1362 130.293ZM57.3302 131.125L55.5937 130.133L55.5847 130.148L55.576 130.164L57.3302 131.125ZM57.3302 133.712L55.5666 134.655L55.5798 134.68L55.5937 134.704L57.3302 133.712ZM58.1362 134.544L57.1341 136.275L57.1438 136.28L57.1536 136.286L58.1362 134.544ZM60.2682 134.544L61.2703 136.275L61.2773 136.271L61.2842 136.267L60.2682 134.544ZM61.0742 133.686L59.3278 132.711L59.3191 132.727L59.3106 132.743L61.0742 133.686ZM58.6211 131.103C58.6649 131.046 58.7623 130.946 58.9809 130.832L57.1355 127.284C56.4875 127.621 55.9002 128.075 55.4413 128.677L58.6211 131.103ZM58.9809 130.832C59.097 130.772 59.264 130.72 59.5272 130.72V126.72C58.6984 126.72 57.8861 126.893 57.1355 127.284L58.9809 130.832ZM59.5272 130.72C59.7997 130.72 60.0043 130.783 60.1885 130.895L62.2719 127.481C61.4334 126.969 60.5027 126.72 59.5272 126.72V130.72ZM60.2225 130.916C60.4069 131.023 60.5579 131.172 60.686 131.413L64.2185 129.537C63.7572 128.668 63.0936 127.96 62.238 127.46L60.2225 130.916ZM60.686 131.413C60.8061 131.639 60.8942 131.946 60.8942 132.386H64.8942C64.8942 131.387 64.6876 130.42 64.2185 129.537L60.686 131.413ZM60.8942 132.386C60.8942 132.825 60.8065 133.15 60.6743 133.407L64.2302 135.239C64.6872 134.352 64.8942 133.386 64.8942 132.386H60.8942ZM60.68 133.396C60.545 133.654 60.3815 133.823 60.1804 133.947L62.28 137.351C63.1189 136.834 63.7701 136.118 64.2244 135.25L60.68 133.396ZM60.1885 133.942C60.0043 134.054 59.7997 134.117 59.5272 134.117V138.117C60.5027 138.117 61.4334 137.868 62.2719 137.356L60.1885 133.942ZM59.5272 134.117C59.2511 134.117 59.0849 134.064 58.9802 134.01L57.1623 137.574C57.9068 137.953 58.7114 138.117 59.5272 138.117V134.117ZM59.0087 134.025C58.7888 133.909 58.6603 133.793 58.5809 133.696L55.4815 136.224C55.9394 136.786 56.5044 137.225 57.1338 137.559L59.0087 134.025ZM55.0312 134.96V139.406H59.0312V134.96H55.0312ZM57.0312 137.406H55.5492V141.406H57.0312V137.406ZM57.5492 139.406V128.837H53.5492V139.406H57.5492ZM55.5492 130.837H57.0312V126.837H55.5492V130.837ZM55.0312 128.837V129.89H59.0312V128.837H55.0312ZM63.3862 132.386C63.3862 131.608 63.2205 130.82 62.8002 130.102L59.3482 132.122C59.3487 132.123 59.3568 132.137 59.3656 132.173C59.3749 132.211 59.3862 132.279 59.3862 132.386H63.3862ZM62.8284 130.151C62.4591 129.477 61.9225 128.912 61.2164 128.532L59.32 132.054C59.3178 132.053 59.3137 132.05 59.3087 132.047C59.3038 132.043 59.3 132.039 59.2977 132.037C59.2955 132.035 59.2964 132.035 59.3 132.04C59.3036 132.045 59.3106 132.055 59.32 132.073L62.8284 130.151ZM61.2703 128.562C60.6358 128.195 59.9347 128.007 59.2022 128.007V132.007C59.2243 132.007 59.2339 132.009 59.2365 132.01C59.239 132.011 59.248 132.013 59.2661 132.024L61.2703 128.562ZM59.2022 128.007C58.4707 128.007 57.7786 128.198 57.1536 128.551L59.1189 132.035C59.1699 132.006 59.1884 132.007 59.2022 132.007V128.007ZM57.1341 128.562C56.4686 128.947 55.9587 129.494 55.5937 130.133L59.0667 132.117C59.0948 132.068 59.1156 132.044 59.1242 132.036C59.132 132.028 59.1357 132.025 59.1383 132.024L57.1341 128.562ZM55.576 130.164C55.1873 130.874 55.0312 131.646 55.0312 132.412H59.0312C59.0312 132.19 59.0745 132.104 59.0844 132.086L55.576 130.164ZM55.0312 132.412C55.0312 133.179 55.1878 133.947 55.5666 134.655L59.0938 132.769C59.074 132.732 59.0312 132.633 59.0312 132.412H55.0312ZM55.5937 134.704C55.9587 135.343 56.4686 135.89 57.1341 136.275L59.1383 132.813C59.1357 132.812 59.132 132.809 59.1242 132.801C59.1156 132.793 59.0948 132.769 59.0667 132.72L55.5937 134.704ZM57.1536 136.286C57.7786 136.639 58.4707 136.83 59.2022 136.83V132.83C59.1884 132.83 59.1699 132.831 59.1189 132.802L57.1536 136.286ZM59.2022 136.83C59.9347 136.83 60.6358 136.642 61.2703 136.275L59.2661 132.813C59.248 132.824 59.239 132.826 59.2365 132.827C59.2339 132.828 59.2243 132.83 59.2022 132.83V136.83ZM61.2842 136.267C61.9625 135.867 62.4793 135.3 62.8378 134.629L59.3106 132.743C59.2875 132.786 59.2708 132.805 59.2655 132.811C59.2609 132.816 59.258 132.818 59.2522 132.821L61.2842 136.267ZM62.8206 134.661C63.2195 133.946 63.3862 133.167 63.3862 132.386H59.3862C59.3862 132.593 59.345 132.681 59.3278 132.711L62.8206 134.661ZM66.0888 130.046V128.046H64.0888V130.046H66.0888ZM66.2708 134.596L64.8566 136.01L64.907 136.061L64.9609 136.107L66.2708 134.596ZM67.8308 134.765H69.8308V132.765H67.8308V134.765ZM67.8308 136V138H69.8308V136H67.8308ZM65.1268 135.532L63.8072 137.035L65.1268 135.532ZM64.5938 130.046H66.5938V128.046H64.5938V130.046ZM63.7488 130.046H61.7488V132.046H63.7488V130.046ZM63.7488 128.837V126.837H61.7488V128.837H63.7488ZM64.5938 128.837V130.837H66.5938V128.837H64.5938ZM64.5938 127.056V125.056H62.5938V127.056H64.5938ZM66.0888 127.056H68.0888V125.056H66.0888V127.056ZM66.0888 128.837H64.0888V130.837H66.0888V128.837ZM67.8308 128.837H69.8308V126.837H67.8308V128.837ZM67.8308 130.046V132.046H69.8308V130.046H67.8308ZM64.0888 130.046V134.011H68.0888V130.046H64.0888ZM64.0888 134.011C64.0888 134.519 64.1949 135.349 64.8566 136.01L67.685 133.182C67.8933 133.39 67.9963 133.611 68.044 133.765C68.089 133.909 68.0888 134.004 68.0888 134.011H64.0888ZM64.9609 136.107C65.6446 136.7 66.4682 136.765 66.9208 136.765V132.765C66.8832 132.765 66.9317 132.76 67.034 132.787C67.1371 132.814 67.3538 132.888 67.5806 133.085L64.9609 136.107ZM66.9208 136.765H67.8308V132.765H66.9208V136.765ZM65.8308 134.765V136H69.8308V134.765H65.8308ZM67.8308 134H66.6608V138H67.8308V134ZM66.6608 134C66.478 134 66.3868 133.978 66.3604 133.97C66.3409 133.964 66.3844 133.975 66.4464 134.029L63.8072 137.035C64.653 137.778 65.7061 138 66.6608 138V134ZM66.4464 134.029C66.4992 134.075 66.5403 134.125 66.5699 134.171C66.5987 134.215 66.6111 134.247 66.6145 134.256C66.6175 134.265 66.612 134.252 66.6058 134.21C66.5997 134.168 66.5938 134.103 66.5938 134.011H62.5938C62.5938 135.006 62.8447 136.19 63.8072 137.035L66.4464 134.029ZM66.5938 134.011V130.046H62.5938V134.011H66.5938ZM64.5938 128.046H63.7488V132.046H64.5938V128.046ZM65.7488 130.046V128.837H61.7488V130.046H65.7488ZM63.7488 130.837H64.5938V126.837H63.7488V130.837ZM66.5938 128.837V127.056H62.5938V128.837H66.5938ZM64.5938 129.056H66.0888V125.056H64.5938V129.056ZM64.0888 127.056V128.837H68.0888V127.056H64.0888ZM66.0888 130.837H67.8308V126.837H66.0888V130.837ZM65.8308 128.837V130.046H69.8308V128.837H65.8308ZM67.8308 128.046H66.0888V132.046H67.8308V128.046ZM69.2747 127.615L70.6889 126.201L70.6889 126.201L69.2747 127.615ZM69.2747 126.263L70.6889 127.677L70.6889 127.677L69.2747 126.263ZM70.6137 126.263L69.1995 127.677V127.677L70.6137 126.263ZM70.6137 127.615L69.1995 126.201V126.201L70.6137 127.615ZM70.6787 128.837H72.6787V126.837H70.6787V128.837ZM70.6787 136V138H72.6787V136H70.6787ZM69.1967 136H67.1967V138H69.1967V136ZM69.1967 128.837V126.837H67.1967V128.837H69.1967ZM69.9507 125.888C70.0459 125.888 70.1799 125.905 70.3291 125.965C70.4801 126.026 70.6014 126.113 70.6889 126.201L67.8605 129.029C68.4355 129.604 69.1775 129.888 69.9507 129.888V125.888ZM70.6889 126.201C70.7764 126.288 70.8635 126.41 70.9244 126.561C70.9847 126.71 71.0017 126.844 71.0017 126.939H67.0017C67.0017 127.712 67.2855 128.454 67.8605 129.029L70.6889 126.201ZM71.0017 126.939C71.0017 127.034 70.9847 127.168 70.9244 127.317C70.8635 127.468 70.7764 127.59 70.6889 127.677L67.8605 124.849C67.2855 125.424 67.0017 126.166 67.0017 126.939H71.0017ZM70.6889 127.677C70.6014 127.765 70.4801 127.852 70.3291 127.913C70.1799 127.973 70.0459 127.99 69.9507 127.99V123.99C69.1775 123.99 68.4355 124.274 67.8605 124.849L70.6889 127.677ZM69.9507 127.99C69.8425 127.99 69.7015 127.97 69.5499 127.908C69.398 127.845 69.2807 127.758 69.1995 127.677L72.0279 124.849C71.4666 124.287 70.7351 123.99 69.9507 123.99V127.99ZM69.1995 127.677C69.1119 127.59 69.0249 127.468 68.9639 127.317C68.9037 127.168 68.8867 127.034 68.8867 126.939H72.8867C72.8867 126.166 72.6029 125.424 72.0279 124.849L69.1995 127.677ZM68.8867 126.939C68.8867 126.844 68.9037 126.71 68.9639 126.561C69.0249 126.41 69.1119 126.288 69.1995 126.201L72.0279 129.029C72.6029 128.454 72.8867 127.712 72.8867 126.939H68.8867ZM69.1995 126.201C69.2807 126.12 69.398 126.033 69.5499 125.97C69.7015 125.908 69.8425 125.888 69.9507 125.888V129.888C70.7351 129.888 71.4666 129.591 72.0279 129.029L69.1995 126.201ZM68.6787 128.837V136H72.6787V128.837H68.6787ZM70.6787 134H69.1967V138H70.6787V134ZM71.1967 136V128.837H67.1967V136H71.1967ZM69.1967 130.837H70.6787V126.837H69.1967V130.837ZM73.8984 135.662L72.9061 137.398L72.9166 137.404L72.9271 137.41L73.8984 135.662ZM72.6114 134.362L70.8618 135.331L70.8683 135.343L72.6114 134.362ZM73.9374 129.175L72.9778 127.42L72.9778 127.42L73.9374 129.175ZM77.6554 129.175L78.615 127.42V127.42L77.6554 129.175ZM78.9554 134.349L77.2288 133.34L78.9554 134.349ZM77.6034 135.662L78.5516 137.423L78.5611 137.418L77.6034 135.662ZM76.7974 134.557L75.8492 132.796L75.8396 132.801L75.83 132.807L76.7974 134.557ZM77.6164 133.738L75.8799 132.746V132.746L77.6164 133.738ZM77.6294 131.099L75.8752 132.06L75.8801 132.069L75.8851 132.078L77.6294 131.099ZM74.7044 130.28L73.737 128.53L73.7271 128.535L73.7172 128.541L74.7044 130.28ZM73.9374 131.099L75.6997 132.045L75.7045 132.036L75.7091 132.027L73.9374 131.099ZM74.2364 134.206L72.7634 135.559L72.7777 135.574L72.7924 135.59L74.2364 134.206ZM75.7314 134.117C75.3665 134.117 75.0944 134.039 74.8697 133.914L72.9271 137.41C73.7944 137.892 74.7443 138.117 75.7314 138.117V134.117ZM74.8907 133.926C74.6627 133.795 74.4915 133.625 74.3546 133.381L70.8683 135.343C71.3554 136.208 72.0421 136.905 72.9061 137.398L74.8907 133.926ZM74.361 133.393C74.2356 133.167 74.1434 132.859 74.1434 132.412H70.1434C70.1434 133.438 70.3632 134.431 70.8618 135.331L74.361 133.393ZM74.1434 132.412C74.1434 131.987 74.2338 131.691 74.3625 131.464L70.8863 129.486C70.3737 130.386 70.1434 131.381 70.1434 132.412H74.1434ZM74.3625 131.464C74.5046 131.215 74.6764 131.05 74.897 130.93L72.9778 127.42C72.0891 127.906 71.3856 128.608 70.8863 129.486L74.3625 131.464ZM74.897 130.93C75.1334 130.801 75.4185 130.72 75.7964 130.72V126.72C74.805 126.72 73.8508 126.943 72.9778 127.42L74.897 130.93ZM75.7964 130.72C76.1743 130.72 76.4595 130.801 76.6958 130.93L78.615 127.42C77.742 126.943 76.7879 126.72 75.7964 126.72V130.72ZM76.6958 130.93C76.9164 131.05 77.0882 131.215 77.2303 131.464L80.7065 129.486C80.2073 128.608 79.5037 127.906 78.615 127.42L76.6958 130.93ZM77.2303 131.464C77.359 131.691 77.4494 131.987 77.4494 132.412H81.4494C81.4494 131.381 81.2192 130.386 80.7065 129.486L77.2303 131.464ZM77.4494 132.412C77.4494 132.827 77.359 133.117 77.2288 133.34L80.682 135.358C81.2105 134.454 81.4494 133.453 81.4494 132.412H77.4494ZM77.2288 133.34C77.0828 133.589 76.8978 133.769 76.6457 133.906L78.5611 137.418C79.453 136.931 80.1693 136.235 80.682 135.358L77.2288 133.34ZM76.6552 133.901C76.4036 134.037 76.109 134.117 75.7314 134.117V138.117C76.7232 138.117 77.6765 137.894 78.5516 137.423L76.6552 133.901ZM75.7314 136.83C76.4464 136.83 77.1352 136.655 77.7648 136.307L75.83 132.807C75.801 132.823 75.7791 132.83 75.7314 132.83V136.83ZM77.7456 136.318C78.4432 135.942 78.977 135.388 79.3529 134.73L75.8799 132.746C75.8566 132.787 75.842 132.801 75.8415 132.802C75.8408 132.802 75.8418 132.801 75.8442 132.799C75.8466 132.798 75.8486 132.796 75.8492 132.796L77.7456 136.318ZM79.3529 134.73C79.7705 134 79.9284 133.197 79.9284 132.412H75.9284C75.9284 132.54 75.9156 132.624 75.9036 132.675C75.892 132.725 75.8809 132.744 75.8799 132.746L79.3529 134.73ZM79.9284 132.412C79.9284 131.642 79.7809 130.846 79.3737 130.12L75.8851 132.078C75.8766 132.062 75.9284 132.142 75.9284 132.412H79.9284ZM79.3836 130.138C79.0216 129.477 78.4986 128.914 77.8038 128.53L75.869 132.03C75.8649 132.028 75.8598 132.025 75.8546 132.021C75.8494 132.017 75.8461 132.014 75.8448 132.012C75.8436 132.011 75.8457 132.013 75.8507 132.02C75.8558 132.027 75.8643 132.04 75.8752 132.06L79.3836 130.138ZM77.8038 128.53C77.1742 128.182 76.4854 128.007 75.7704 128.007V132.007C75.8181 132.007 75.84 132.014 75.869 132.03L77.8038 128.53ZM75.7704 128.007C75.0555 128.007 74.3667 128.182 73.737 128.53L75.6718 132.03C75.7008 132.014 75.7227 132.007 75.7704 132.007V128.007ZM73.7172 128.541C73.0252 128.933 72.5135 129.507 72.1658 130.171L75.7091 132.027C75.7192 132.008 75.7267 131.996 75.7305 131.991C75.7343 131.985 75.735 131.985 75.732 131.988C75.7288 131.992 75.7233 131.997 75.7154 132.003C75.7075 132.01 75.6993 132.015 75.6916 132.019L73.7172 128.541ZM72.1751 130.153C71.7897 130.872 71.6514 131.655 71.6514 132.412H75.6514C75.6514 132.129 75.7038 132.037 75.6997 132.045L72.1751 130.153ZM71.6514 132.412C71.6514 133.512 71.9335 134.655 72.7634 135.559L75.7095 132.853C75.7251 132.87 75.7161 132.871 75.6991 132.819C75.6797 132.76 75.6514 132.633 75.6514 132.412H71.6514ZM72.7924 135.59C73.5841 136.416 74.6114 136.83 75.7314 136.83V132.83C75.6981 132.83 75.6801 132.827 75.6744 132.826C75.6691 132.825 75.6719 132.825 75.6795 132.828C75.6873 132.832 75.6934 132.835 75.6962 132.837C75.6988 132.839 75.6932 132.836 75.6804 132.822L72.7924 135.59ZM86.0365 129.071L85.1007 130.839L85.1077 130.842L85.1148 130.846L86.0365 129.071ZM87.0895 130.111L85.3349 131.071L85.3349 131.071L87.0895 130.111ZM87.4665 136V138H89.4665V136H87.4665ZM85.9975 136H83.9975V138H85.9975V136ZM85.5165 130.527L84.0483 131.885L84.0568 131.894L84.0655 131.904L85.5165 130.527ZM82.8775 130.527L81.4275 129.15L81.4265 129.15L82.8775 130.527ZM82.3965 136V138H84.3965V136H82.3965ZM80.9145 136H78.9145V138H80.9145V136ZM80.9145 128.837V126.837H78.9145V128.837H80.9145ZM82.3965 128.837H84.3965V126.837H82.3965V128.837ZM82.3965 129.656H80.3965V135.231L83.9403 130.927L82.3965 129.656ZM83.3195 128.967L82.5266 127.131L82.5188 127.134L82.5111 127.138L83.3195 128.967ZM84.5285 130.72C84.8073 130.72 84.9818 130.776 85.1007 130.839L86.9722 127.303C86.2071 126.898 85.3762 126.72 84.5285 126.72V130.72ZM85.1148 130.846C85.2017 130.891 85.2679 130.948 85.3349 131.071L88.844 129.151C88.4084 128.355 87.7726 127.719 86.9581 127.296L85.1148 130.846ZM85.3349 131.071C85.3908 131.173 85.4665 131.381 85.4665 131.775H89.4665C89.4665 130.869 89.2908 129.968 88.844 129.151L85.3349 131.071ZM85.4665 131.775V136H89.4665V131.775H85.4665ZM87.4665 134H85.9975V138H87.4665V134ZM87.9975 136V131.996H83.9975V136H87.9975ZM87.9975 131.996C87.9975 131.038 87.7554 129.981 86.9674 129.15L84.0655 131.904C84.0359 131.872 84.0134 131.841 83.9977 131.814C83.9823 131.787 83.9767 131.771 83.9765 131.77C83.9765 131.77 83.9818 131.786 83.9872 131.824C83.9926 131.862 83.9975 131.918 83.9975 131.996H87.9975ZM86.9847 129.169C86.2189 128.341 85.2094 128.007 84.2035 128.007V132.007C84.2728 132.007 84.2647 132.018 84.2113 131.996C84.185 131.986 84.1544 131.97 84.123 131.949C84.0916 131.927 84.0665 131.905 84.0483 131.885L86.9847 129.169ZM84.2035 128.007C83.1962 128.007 82.1956 128.341 81.4275 129.15L84.3275 131.904C84.3125 131.92 84.291 131.939 84.2636 131.958C84.236 131.976 84.2091 131.99 84.1861 131.999C84.1389 132.017 84.1346 132.007 84.2035 132.007V128.007ZM81.4265 129.15C80.6386 129.981 80.3965 131.038 80.3965 131.996H84.3965C84.3965 131.918 84.4013 131.862 84.4067 131.824C84.4121 131.786 84.4175 131.77 84.4174 131.77C84.4172 131.771 84.4116 131.787 84.3962 131.814C84.3805 131.841 84.358 131.872 84.3284 131.904L81.4265 129.15ZM80.3965 131.996V136H84.3965V131.996H80.3965ZM82.3965 134H80.9145V138H82.3965V134ZM82.9145 136V128.837H78.9145V136H82.9145ZM80.9145 130.837H82.3965V126.837H80.9145V130.837ZM80.3965 128.837V129.656H84.3965V128.837H80.3965ZM83.9403 130.927C83.9714 130.89 84.0208 130.844 84.1278 130.796L82.5111 127.138C81.8728 127.42 81.3068 127.833 80.8526 128.385L83.9403 130.927ZM84.1123 130.803C84.2376 130.749 84.3702 130.72 84.5285 130.72V126.72C83.8374 126.72 83.164 126.856 82.5266 127.131L84.1123 130.803ZM89.3048 130.475L87.5501 129.515L87.5443 129.526L87.5386 129.537L89.3048 130.475ZM90.5268 129.188L91.5473 130.908L91.5558 130.903L90.5268 129.188ZM93.7118 129.058L92.7593 130.817L92.7809 130.828L92.8029 130.84L93.7118 129.058ZM94.7258 129.877L93.1359 131.09L96.7258 135.794V129.877H94.7258ZM94.7258 128.837V126.837H92.7258V128.837H94.7258ZM96.2208 128.837H98.2208V126.837H96.2208V128.837ZM96.2208 136V138H98.2208V136H96.2208ZM94.7258 136H92.7258V138H94.7258V136ZM94.7258 134.934H96.7258V128.893L93.1209 133.741L94.7258 134.934ZM93.6988 135.779L92.7761 134.005L93.6988 135.779ZM90.5268 135.649L89.4643 137.343L89.4746 137.35L89.4851 137.356L90.5268 135.649ZM89.3048 134.323L87.5269 135.239L87.5352 135.255L87.5439 135.271L89.3048 134.323ZM94.4138 131.125L92.6596 132.086L92.6684 132.102L92.6773 132.117L94.4138 131.125ZM93.6208 130.293L92.6188 132.024L93.6208 130.293ZM91.4888 130.293L92.4562 132.043L92.4737 132.034L92.4909 132.024L91.4888 130.293ZM90.6828 131.112L88.9464 130.12L88.9424 130.127L88.9385 130.133L90.6828 131.112ZM90.6828 133.686L88.9193 134.629L88.9277 134.645L88.9364 134.661L90.6828 133.686ZM91.4888 134.544L90.4532 136.255L90.4795 136.271L90.5062 136.286L91.4888 134.544ZM93.6208 134.544L94.6229 136.275L93.6208 134.544ZM94.4138 133.712L92.6674 132.737L92.6635 132.744L92.6596 132.751L94.4138 133.712ZM90.8628 132.386C90.8628 131.946 90.9509 131.639 91.0711 131.413L87.5386 129.537C87.0694 130.42 86.8628 131.387 86.8628 132.386H90.8628ZM91.0596 131.435C91.2021 131.174 91.3642 131.017 91.5472 130.908L89.5064 127.468C88.6668 127.966 88.0142 128.667 87.5501 129.515L91.0596 131.435ZM91.5558 130.903C91.7557 130.783 91.9703 130.72 92.2428 130.72V126.72C91.2674 126.72 90.338 126.969 89.4978 127.473L91.5558 130.903ZM92.2428 130.72C92.5368 130.72 92.6868 130.777 92.7593 130.817L94.6644 127.299C93.9049 126.888 93.0755 126.72 92.2428 126.72V130.72ZM92.8029 130.84C93.0011 130.941 93.0917 131.032 93.1359 131.09L96.3157 128.664C95.8573 128.063 95.2719 127.609 94.6208 127.276L92.8029 130.84ZM96.7258 129.877V128.837H92.7258V129.877H96.7258ZM94.7258 130.837H96.2208V126.837H94.7258V130.837ZM94.2208 128.837V136H98.2208V128.837H94.2208ZM96.2208 134H94.7258V138H96.2208V134ZM96.7258 136V134.934H92.7258V136H96.7258ZM93.1209 133.741C93.0768 133.8 92.9838 133.897 92.7761 134.005L94.6215 137.553C95.2805 137.211 95.8722 136.744 96.3308 136.127L93.1209 133.741ZM92.7761 134.005C92.6644 134.063 92.4943 134.117 92.2168 134.117V138.117C93.0488 138.117 93.8666 137.946 94.6215 137.553L92.7761 134.005ZM92.2168 134.117C91.9585 134.117 91.7573 134.057 91.5686 133.942L89.4851 137.356C90.3191 137.865 91.2445 138.117 92.2168 138.117V134.117ZM91.5894 133.955C91.3893 133.829 91.2151 133.652 91.0658 133.375L87.5439 135.271C88.0012 136.121 88.6417 136.828 89.4643 137.343L91.5894 133.955ZM91.0828 133.407C90.9505 133.15 90.8628 132.825 90.8628 132.386H86.8628C86.8628 133.386 87.0698 134.352 87.5269 135.239L91.0828 133.407ZM96.7258 132.412C96.7258 131.632 96.5595 130.849 96.1503 130.133L92.6773 132.117C92.6841 132.129 92.7258 132.204 92.7258 132.412H96.7258ZM96.168 130.164C95.8095 129.51 95.297 128.952 94.6229 128.562L92.6188 132.024C92.6192 132.024 92.6186 132.024 92.6175 132.023C92.6164 132.022 92.6166 132.022 92.6183 132.024C92.6211 132.027 92.6366 132.044 92.6596 132.086L96.168 130.164ZM94.6229 128.562C93.9884 128.195 93.2873 128.007 92.5548 128.007V132.007C92.5769 132.007 92.5865 132.009 92.5891 132.01C92.5916 132.011 92.6006 132.013 92.6188 132.024L94.6229 128.562ZM92.5548 128.007C91.8224 128.007 91.1213 128.195 90.4868 128.562L92.4909 132.024C92.509 132.013 92.5181 132.011 92.5206 132.01C92.5232 132.009 92.5328 132.007 92.5548 132.007V128.007ZM90.5215 128.543C89.8354 128.922 89.315 129.475 88.9464 130.12L92.4193 132.104C92.4458 132.058 92.4632 132.04 92.4658 132.037C92.4674 132.035 92.4669 132.036 92.4643 132.038C92.4616 132.04 92.4587 132.042 92.4562 132.043L90.5215 128.543ZM88.9385 130.133C88.5393 130.845 88.3838 131.622 88.3838 132.386H92.3838C92.3838 132.273 92.3953 132.198 92.4057 132.154C92.4157 132.111 92.4254 132.094 92.4271 132.091L88.9385 130.133ZM88.3838 132.386C88.3838 133.153 88.5404 133.921 88.9193 134.629L92.4464 132.743C92.4266 132.706 92.3838 132.607 92.3838 132.386H88.3838ZM88.9364 134.661C89.2947 135.303 89.7958 135.857 90.4532 136.255L92.5244 132.833C92.5232 132.832 92.487 132.815 92.4292 132.711L88.9364 134.661ZM90.5062 136.286C91.1312 136.639 91.8234 136.83 92.5548 136.83V132.83C92.541 132.83 92.5225 132.831 92.4715 132.802L90.5062 136.286ZM92.5548 136.83C93.2873 136.83 93.9884 136.642 94.6229 136.275L92.6188 132.813C92.6006 132.824 92.5916 132.826 92.5891 132.827C92.5865 132.828 92.5769 132.83 92.5548 132.83V136.83ZM94.6229 136.275C95.297 135.885 95.8095 135.327 96.168 134.673L92.6596 132.751C92.6366 132.793 92.6211 132.81 92.6183 132.813C92.6166 132.815 92.6164 132.815 92.6175 132.814C92.6186 132.813 92.6192 132.813 92.6188 132.813L94.6229 136.275ZM96.1602 134.687C96.5591 133.972 96.7258 133.193 96.7258 132.412H92.7258C92.7258 132.619 92.6846 132.707 92.6674 132.737L96.1602 134.687ZM99.6494 126.38H101.649V124.38H99.6494V126.38ZM99.6494 136V138H101.649V136H99.6494ZM98.1674 136H96.1674V138H98.1674V136ZM98.1674 126.38V124.38H96.1674V126.38H98.1674ZM97.6494 126.38V136H101.649V126.38H97.6494ZM99.6494 134H98.1674V138H99.6494V134ZM100.167 136V126.38H96.1674V136H100.167ZM98.1674 128.38H99.6494V124.38H98.1674V128.38Z" fill="white" mask="url(#path-24-outside-1_0_1)"/>
</svg>
