<svg width="30" height="30" viewBox="0 0 30 30" fill="none" xmlns="http://www.w3.org/2000/svg">
<circle cx="15" cy="15" r="15" fill="white"/>
<circle cx="15" cy="15" r="12.625" fill="white" stroke="#00BCFF"/>
<path d="M20.1148 13.472H19.1868C18.9948 13.472 18.8721 13.3707 18.8188 13.168C18.7655 12.752 18.7281 12.4107 18.7068 12.144H14.5788V15.568H18.6268V17.28H14.5788V20.416L15.0588 20.496C15.1121 20.5067 15.1548 20.5173 15.1868 20.528C15.2295 20.5387 15.2668 20.544 15.2988 20.544L15.3948 20.56C15.6615 20.624 15.7948 20.7893 15.7948 21.056V22H11.2028V21.056C11.2028 20.7893 11.3361 20.624 11.6028 20.56L11.6988 20.544C11.7308 20.544 11.7628 20.5387 11.7948 20.528C11.8375 20.5173 11.8855 20.5067 11.9388 20.496L12.4188 20.416V12.016L11.9388 11.936C11.8855 11.9253 11.8375 11.9147 11.7948 11.904C11.7628 11.8933 11.7308 11.888 11.6988 11.888L11.6028 11.872C11.3361 11.808 11.2028 11.6427 11.2028 11.376V10.432H20.1148V13.472Z" fill="#00BCFF"/>
</svg>
